<svg version="1.1" viewBox="260.096 667.648 530.432 112.64" xmlns="http://www.w3.org/2000/svg" style="max-height: 500px" width="530.432" height="112.64"><path style="opacity: 1;" data-index="0" fill-rule="evenodd" fill="#0674b5" stroke="none" d="M 498 263.687 C 456.098 266.834, 416.423 284.918, 385.643 314.899 C 358.235 341.596, 341.137 373.481, 333.306 412.500 C 330.461 426.676, 330.738 462.580, 333.810 477.834 C 341.882 517.914, 363.893 555.964, 393.270 580.621 C 457.050 634.153, 545.665 639.175, 614.096 593.135 C 633.633 579.990, 648.916 564.704, 662.126 545.096 C 681.821 515.860, 691.388 486.252, 692.695 450.495 C 693.772 421.005, 688.865 395.618, 677.299 370.850 L 672.793 361.201 669.257 363.600 C 662.370 368.274, 653.330 366.747, 647.605 359.943 C 645.174 357.054, 644.732 356.898, 641.837 357.907 C 631.869 361.382, 619.509 355.696, 614.866 345.500 C 612.195 339.635, 612.434 331.456, 615.452 325.496 L 617.903 320.654 615.019 317.369 C 610.907 312.686, 610.176 306.651, 612.958 300.363 L 615.109 295.500 612.305 293.220 C 607.398 289.232, 578.873 275.501, 568.585 272.176 C 546.315 264.977, 521.139 261.949, 498 263.687 M 486.631 272.512 C 417.007 283.818, 362.726 332.345, 344.028 400 C 337.215 424.650, 336.553 451.993, 342.103 479.500 C 352.054 528.827, 386.196 573.937, 430.995 596.949 C 482.527 623.419, 542.283 623.472, 592.582 597.091 C 626.357 579.377, 651.432 553.582, 668.004 519.500 C 678.104 498.728, 683.021 480.566, 685.087 456.394 C 687.216 431.479, 682.543 401.630, 673.073 379.646 C 671.397 375.756, 670.637 374.937, 669.241 375.522 C 665.495 377.090, 659.689 377.719, 656.207 376.934 C 654.199 376.481, 652.443 376.224, 652.305 376.362 C 652.166 376.500, 653.592 380.188, 655.472 384.557 C 664.353 405.187, 667.444 422.901, 666.706 448.918 C 666.136 468.994, 664.733 477.247, 658.910 494.755 C 642.378 544.463, 596.526 584.879, 544.667 595.454 C 474.175 609.829, 404.140 576.135, 372.241 512.500 C 351.850 471.821, 351.173 420.889, 370.473 379.500 C 391.467 334.480, 431.894 302.328, 480.500 291.996 C 493.278 289.280, 520.096 288.209, 532.117 289.935 C 554.877 293.202, 580.030 302.356, 595.505 313.004 C 597.901 314.652, 600.168 316, 600.544 316 C 600.920 316, 600.956 314.087, 600.626 311.750 C 600.083 307.917, 600.502 304.964, 602.532 298.314 C 603.139 296.329, 601.918 295.495, 589.193 289.200 C 573.866 281.618, 560.898 277.080, 545.500 273.910 C 532.171 271.167, 499.670 270.395, 486.631 272.512 M 570.440 382.795 C 564.358 389.783, 544.505 412.825, 526.323 434 C 508.141 455.175, 492.418 473.245, 491.383 474.156 C 489.584 475.738, 488.569 474.812, 468.625 453.387 L 447.749 430.961 442.625 435.656 C 433.126 444.358, 423 454.203, 423 454.736 C 423 455.027, 426.523 458.917, 430.828 463.382 C 435.133 467.847, 448.920 482.300, 461.465 495.500 C 474.010 508.700, 485.716 520.995, 487.477 522.823 L 490.680 526.147 504.219 510.823 C 511.666 502.395, 533.406 477.500, 552.530 455.500 C 571.655 433.500, 592.012 410.190, 597.769 403.701 C 603.525 397.212, 608.070 391.787, 607.868 391.647 C 607.665 391.507, 602.046 386.579, 595.379 380.696 C 588.713 374.813, 582.863 370.020, 582.379 370.045 C 581.896 370.070, 576.523 375.808, 570.440 382.795 M 489.091 673.099 C 483.712 675.229, 482.482 680.572, 486.455 684.545 C 491.233 689.324, 499.333 686.528, 499.333 680.100 C 499.333 674.792, 494.009 671.152, 489.091 673.099 M 590.557 675.223 C 586.981 680.328, 590.609 687, 596.961 687 C 602.802 687, 606.114 679.114, 602 675 C 599.131 672.131, 592.633 672.258, 590.557 675.223 M 516 715 L 516 755 521.905 755 L 527.810 755 527.276 750.750 L 526.742 746.500 530.121 749.699 C 534.917 754.241, 539.843 756.002, 547.718 755.990 C 564.946 755.965, 576.872 742.443, 575.836 724.110 C 575.146 711.889, 568.372 702.266, 557.684 698.326 C 549.409 695.275, 536.215 697.637, 530.250 703.236 L 528 705.349 528 690.174 L 528 675 522 675 L 516 675 516 715 M 624 690.500 L 624 698 619 698 L 614 698 614 702.500 L 614 707 618.924 707 L 623.847 707 624.174 726.430 C 624.530 747.653, 624.750 748.484, 631.298 753.373 C 635.042 756.168, 644.692 756.771, 650.456 754.570 L 654.843 752.895 653.346 748.501 C 651.950 744.405, 651.680 744.171, 649.359 745.054 C 644.967 746.723, 639.485 746.193, 637.405 743.898 C 635.714 742.032, 635.465 739.839, 635.186 724.398 L 634.871 707 643.436 707 L 652 707 652 702.500 L 652 698 643.500 698 L 635 698 635 690.500 L 635 683 629.500 683 L 624 683 624 690.500 M 305.999 697.914 C 306 698.142, 311.471 711.079, 318.157 726.664 L 330.315 755 335.157 755.150 C 337.821 755.232, 340.506 755.345, 341.125 755.400 C 342.119 755.488, 351.632 734.589, 363.043 707.250 L 366.903 698 361.019 698 C 355.791 698, 355.057 698.251, 354.436 700.250 C 353.337 703.788, 337.790 740.409, 337.011 741.294 C 336.626 741.731, 332.821 733.856, 328.553 723.794 C 324.286 713.732, 320.051 703.761, 319.141 701.636 C 317.509 697.821, 317.416 697.771, 311.743 697.636 C 308.584 697.561, 305.999 697.686, 305.999 697.914 M 388.385 698.569 C 382.573 700.699, 376.371 706.353, 373.258 712.362 C 371.004 716.713, 370.589 718.802, 370.551 726 C 370.498 735.990, 372.535 741.468, 378.533 747.467 C 384.697 753.630, 389.928 755.499, 401 755.494 C 409.330 755.491, 411.116 755.166, 415.500 752.853 C 418.250 751.403, 421.373 749.250, 422.441 748.068 C 424.375 745.928, 424.371 745.909, 421.286 742.824 L 418.190 739.728 415.345 741.711 C 403.218 750.163, 384.850 745.491, 382.416 733.334 L 381.849 730.500 404.675 730.500 L 427.500 730.500 427.347 723.765 C 427.104 713.095, 421.422 703.874, 412.366 699.449 C 407.258 696.954, 394.109 696.471, 388.385 698.569 M 463.885 698.380 C 459.670 699.886, 454 703.722, 454 705.068 C 454 705.581, 453.550 706, 453 706 C 452.450 706, 452 704.200, 452 702 L 452 698 447 698 L 442 698 442 726.500 L 442 755 447.500 755 L 453 755 453 737.657 C 453 721.543, 453.161 720.010, 455.275 716.013 C 457.913 711.024, 462.328 708.291, 469.226 707.376 L 474 706.742 474 701.871 C 474 697.033, 473.978 697, 470.750 697.044 C 468.962 697.068, 465.873 697.669, 463.885 698.380 M 680.994 697.934 C 672.466 700.528, 664.856 708.248, 662.359 716.838 C 660.046 724.792, 660.908 734.223, 664.560 740.932 C 669.722 750.417, 677.449 755.089, 689.127 755.787 C 698.088 756.322, 704.452 754.584, 710.906 749.838 L 715.131 746.731 711.938 743.436 L 708.744 740.141 704.903 742.683 C 699.766 746.083, 689.859 746.982, 683.653 744.612 C 678.530 742.655, 675.681 739.875, 673.534 734.736 L 671.973 731 694.987 731 L 718 731 718 725.178 C 718 708.512, 706.648 696.920, 690.500 697.096 C 686.650 697.138, 682.372 697.515, 680.994 697.934 M 486 726.500 L 486 755 491.884 755 L 497.767 755 497.448 751.750 C 497.272 749.962, 497.099 737.138, 497.064 723.250 L 497 698 491.500 698 L 486 698 486 726.500 M 591 726.500 L 591 755 596.500 755 L 602 755 602 726.500 L 602 698 596.500 698 L 591 698 591 726.500 M 393.664 707.223 C 391.554 707.782, 388.393 709.673, 386.641 711.426 C 383.602 714.465, 380.600 721.266, 381.777 722.444 C 382.628 723.295, 417.001 723.105, 416.994 722.250 C 416.949 716.098, 410.976 708.854, 404.500 707.097 C 399.862 705.838, 398.847 705.850, 393.664 707.223 M 683.684 707.396 C 681.585 708.174, 679.009 709.587, 677.959 710.537 C 675.437 712.820, 671.678 720.670, 672.483 721.973 C 672.878 722.611, 679.584 723, 690.190 723 L 707.262 723 706.657 719.273 C 705.088 709.607, 693.662 703.700, 683.684 707.396 M 536.748 709.069 C 523.232 716.204, 524.519 740.386, 538.662 745.053 C 543.916 746.787, 552.211 745.798, 556.382 742.940 C 567.991 734.986, 567 715.051, 554.698 709.096 C 549.174 706.422, 541.784 706.411, 536.748 709.069"/></svg>